# xmcd
#
# Track frame offsets:
#	150
#	16583
#	27202
#	42304
#	49517
#	57797
#	75641
#	93804
#	109097
#	129665
#	144151
#	164632
#	180218
#	196345
#	207431
#	219849
#	243899
#	264085
#	278190
#	298292
#
# Disc length: 4259 seconds
#
# Revision: 2
# Processed by: cddbd v1.5.2PL0 Copyright (c) Steve Scherf et al.
# Submitted via: VisiTrax 2.9.9.202 - For more info visit www.synapsa.com
#
DISCID=0a10a114
DTITLE=Various Artist - Devil's Music, (The) [CD 1]
DYEAR=1900
DGENRE=
TTITLE0=Sam Chatmon - Stop and Listen
TTITLE1=Big Joe Williams - Highway 49
TTITLE2=Houston Stackhouse - Cool Drink of Water
TTITLE3=Sam Chatmon - Sam's Rag
TTITLE4=Big Joe Williams - Watergate Blues
TTITLE5=Sam Chatmon - Who Gonna Love You Tonight
TTITLE6=Bukka White - Aberdeen, Mississippi
TTITLE7=Mose Vinson - When You Got Rid of My Mule
TTITLE8=Sonny Blake - One Room Country Shack
TTITLE9=Sonny Blake - Bring It on Home
TTITLE10=Joe Willie Wilkins - Mr. Downchild
TTITLE11=Houston Stackhouse - Mean Red Spider
TTITLE12=Mose Vinson - Bugle Call Blues
TTITLE13=Laura Dukes - Crawdad
TTITLE14=Aces, (The) - Take A Little Walk With Me
TTITLE15=Billy Boy Arnold - Somebody Help Me
TTITLE16=Fenton Robinson - Somebody Loan Me A Dime
TTITLE17=Good Rockin' Charles - Don't Start Me Talkin'
TTITLE18=Fenton Robinson - You Don't Know What Love Is
TTITLE19=Joe Carter - It Hurts Me Too
EXTD=
EXTT0=
EXTT1=
EXTT2=
EXTT3=
EXTT4=
EXTT5=
EXTT6=
EXTT7=
EXTT8=
EXTT9=
EXTT10=
EXTT11=
EXTT12=
EXTT13=
EXTT14=
EXTT15=
EXTT16=
EXTT17=
EXTT18=
EXTT19=
PLAYORDER=
